# xmcd CD database file
#
# Track frame offsets:
#	150
#	20974
#	46127
#	56314
#	75687
#	91055
#	113833
#	129064
#	149923
#
# Disc length: 2266 seconds
#
# Revision: 0
# Processed by: cddbd v1.5.2PL0 Copyright (c) Steve Scherf et al.
# Submitted via: CDex 1.51
#
DISCID=7108d809
DTITLE=Sarah Collyer - Yesterday's Blues
DYEAR=2012
DGENRE=Jazz
TTITLE0=Call Me
TTITLE1=Yesterdays' Blues
TTITLE2=Beautifull Love
TTITLE3=Summer Days
TTITLE4=Waiting For You
TTITLE5=Alright
TTITLE6=Dumb Things
TTITLE7=Silent Falls The Rain
TTITLE8=In the Wee Small Hours of the Morning
EXTD=YEAR: 2012
EXTT0=
EXTT1=
EXTT2=
EXTT3=
EXTT4=
EXTT5=
EXTT6=
EXTT7=
EXTT8=
PLAYORDER=
